<?xml version="1.0" encoding="UTF-8" standalone="no"?>
<!-- Created with Inkscape (http://www.inkscape.org/) -->

<svg
   version="1.1"
   id="svg1"
   width="512"
   height="512"
   viewBox="0 0 512 512"
   sodipodi:docname="bobine.svg"
   inkscape:version="1.3.2 (091e20e, 2023-11-25, custom)"
   xmlns:inkscape="http://www.inkscape.org/namespaces/inkscape"
   xmlns:sodipodi="http://sodipodi.sourceforge.net/DTD/sodipodi-0.dtd"
   xmlns="http://www.w3.org/2000/svg"
   xmlns:svg="http://www.w3.org/2000/svg">
  <defs
     id="defs1" />
  <sodipodi:namedview
     id="namedview1"
     pagecolor="#505050"
     bordercolor="#eeeeee"
     borderopacity="1"
     inkscape:showpageshadow="0"
     inkscape:pageopacity="0"
     inkscape:pagecheckerboard="0"
     inkscape:deskcolor="#505050"
     inkscape:zoom="0.50892353"
     inkscape:cx="26.526578"
     inkscape:cy="138.52769"
     inkscape:window-width="1920"
     inkscape:window-height="1009"
     inkscape:window-x="-8"
     inkscape:window-y="-8"
     inkscape:window-maximized="1"
     inkscape:current-layer="g1" />
  <g
     inkscape:groupmode="layer"
     inkscape:label="Image"
     id="g1">
    <path
       style="fill:#000000;stroke-width:1.18274"
       d="M 205.40415,452.02424 C 152.34873,447.56059 100.84254,434.20575 70.77643,417.11715 57.026564,409.30217 51.518661,405.08571 43.539161,396.26623 34.593009,386.37835 30.965653,377.75312 31.004659,366.46138 c 0.03904,-11.30331 2.847506,-18.29502 11.381901,-28.33542 8.224637,-9.67599 16.351099,-15.85287 31.883303,-24.23433 l 12.357783,-6.66851 0.471509,-8.53892 c 0.25932,-4.69641 0.376215,-10.79087 0.259763,-13.54326 -0.116452,-2.75238 -0.184454,-7.67852 -0.151113,-10.94698 0.03326,-3.26846 0.0606,-8.75758 0.0606,-12.19806 0,-3.44048 0,-9.07036 0,-12.51084 0,-3.44048 0,-9.07036 0,-12.51084 0,-3.44048 0,-9.07035 0,-12.51083 0,-3.44048 0,-9.07036 0,-12.51084 0,-3.44048 -0.0871,-8.92961 -0.193513,-12.19807 -0.106454,-3.26846 0.178426,-7.07074 0.633042,-8.44952 0.730291,-2.2149 -0.55975,-3.22842 -11.075988,-8.70194 C 54.517409,171.0928 40.023035,158.129 34.048043,144.5159 29.734097,134.68725 29.715176,122.86665 33.997767,113.11003 49.631656,77.492869 118.5482,50.058437 210.3303,42.915236 c 24.00277,-1.86808 88.06205,-0.75519 109.12404,1.895793 58.79951,7.400835 107.00472,23.022771 133.61765,43.301716 8.37931,6.385002 18.5911,18.665505 21.54271,25.906855 3.35816,8.23877 3.35816,21.233 0,29.47178 -5.4985,13.48978 -21.07563,27.62092 -43.05486,39.05816 -10.6131,5.52271 -11.91194,6.53974 -11.18139,8.75542 0.45461,1.37878 0.73949,5.18106 0.63305,8.44952 -0.10646,3.26846 -0.19352,8.75759 -0.19352,12.19807 0,3.44048 0,9.07036 0,12.51084 0,3.44048 0,9.07035 0,12.51083 0,3.44048 0,9.07036 0,12.51084 0,3.44048 0,9.07036 0,12.51084 0,3.44048 0.0272,8.9296 0.0606,12.19806 0.0333,3.26846 -0.0347,8.1946 -0.15113,10.94698 -0.11645,2.75239 4.4e-4,8.84685 0.25976,13.54326 l 0.47152,8.53892 12.35779,6.66851 c 6.79678,3.66767 15.29345,8.90603 18.88149,11.6408 8.71716,6.64413 18.91728,18.83451 21.91666,26.19306 3.35817,8.23877 3.35817,21.233 0,29.47178 -2.9516,7.24135 -13.16339,19.52184 -21.54271,25.90686 -29.93567,22.81086 -87.08286,39.66721 -152.626,45.01916 -18.11057,1.47881 -77.01682,1.41744 -95.04185,-0.0991 z m 95.60091,-12.46899 c 73.91778,-5.58893 136.55383,-27.27709 158.41345,-54.85173 14.92566,-18.82789 5.61413,-39.14847 -26.35987,-57.52515 l -10.98994,-6.31635 -0.64963,6.13725 c -0.89545,8.45964 -3.96785,14.60755 -10.99991,22.01102 -18.40765,19.37984 -52.71292,32.1859 -106.05969,39.5918 -18.41494,2.55647 -87.13874,2.13712 -105.66416,-0.64476 -48.4914,-7.28174 -82.68449,-20.15599 -99.603267,-37.50222 -8.244971,-8.45331 -11.48393,-14.56793 -12.42471,-23.45584 l -0.649619,-6.13725 -10.989953,6.31635 c -13.823474,7.94488 -23.924236,16.66824 -28.958473,25.00949 -3.435524,5.69235 -3.913488,7.43796 -3.913488,14.29274 0,6.96766 0.448145,8.53649 4.16194,14.56989 12.529889,20.35593 49.431624,38.83164 99.26595,49.69978 46.0102,10.03417 99.26355,13.05108 155.42137,8.80498 z m -15.85211,-61.89971 c 30.27244,-1.7066 65.35466,-9.12937 87.77046,-18.57069 17.2397,-7.2612 31.97394,-18.3558 36.02857,-27.12883 3.19621,-6.91567 1.93248,-7.62409 -4.23951,-2.37648 -20.25046,17.21753 -61.74849,30.17329 -112.43576,35.10267 -20.12277,1.95695 -75.65408,0.85606 -94.14048,-1.86632 -42.76792,-6.29815 -77.34066,-18.42397 -94.76231,-33.23635 -4.083539,-3.47195 -5.870227,-4.40681 -5.870227,-3.0715 0,3.60197 3.255447,8.97035 8.856737,14.60517 19.66777,19.78547 68.47668,34.26067 125.31999,37.16596 17.7417,0.90678 28.56414,0.78057 53.47253,-0.62363 z m 8.5842,-25.69936 c 37.83304,-3.55525 71.12101,-12.4435 93.4013,-24.93915 12.58531,-7.05833 23.44426,-18.88367 23.44426,-25.53067 0,-1.3353 -1.78669,-0.40045 -5.87024,3.0715 -20.25046,17.21754 -61.74849,30.1733 -112.43576,35.10268 -20.12277,1.95694 -75.65408,0.85605 -94.14048,-1.86631 -42.76792,-6.29816 -77.34066,-18.42399 -94.76231,-33.23637 -4.083539,-3.47195 -5.870227,-4.4068 -5.870227,-3.0715 0,6.63164 10.235997,17.79809 23.159507,25.26477 37.1764,21.47901 106.0261,31.5057 173.07395,25.20505 z m 0,-25.02168 c 27.68032,-2.60117 57.64401,-9.18585 76.59254,-16.83159 19.0348,-7.68055 34.30938,-18.85836 38.67344,-28.30093 3.14497,-6.80479 1.85137,-7.4879 -4.29066,-2.26579 -18.39783,15.64237 -53.6581,27.59436 -100.353,34.01613 -18.45057,2.53744 -87.20779,2.11046 -105.66416,-0.65617 -43.72085,-6.55381 -77.83562,-18.49307 -95.32139,-33.35996 -4.083539,-3.47195 -5.870227,-4.40681 -5.870227,-3.0715 0,6.63163 10.235997,17.79809 23.159507,25.26477 37.1764,21.47901 106.0261,31.50571 173.07395,25.20504 z m 5.5907,-25.64813 c 36.91146,-4.02223 66.11332,-12.14303 88.18589,-24.52382 12.42887,-6.9715 23.06897,-18.64963 23.06897,-25.31953 0,-1.33531 -1.78669,-0.40045 -5.87024,3.07149 -18.39783,15.64238 -53.6581,27.59437 -100.353,34.01615 -18.45057,2.53742 -87.20779,2.11045 -105.66416,-0.65619 -43.72085,-6.5538 -77.83562,-18.49307 -95.32139,-33.35996 -4.083539,-3.47194 -5.870227,-4.4068 -5.870227,-3.07149 0,6.63163 10.235997,17.79808 23.159507,25.26477 38.36511,22.16579 110.1641,32.04304 178.66465,24.57858 z m 0,-25.02168 c 36.91146,-4.02222 66.11332,-12.14303 88.18589,-24.52382 12.42887,-6.9715 23.06897,-18.64962 23.06897,-25.31953 0,-1.33531 -1.78669,-0.40044 -5.87024,3.0715 -18.39783,15.64237 -53.6581,27.59436 -100.353,34.01614 -18.45057,2.53744 -87.20779,2.11045 -105.66416,-0.65618 -43.72085,-6.5538 -77.83562,-18.49307 -95.32139,-33.35996 -4.083539,-3.47194 -5.870227,-4.40681 -5.870227,-3.0715 0,6.63163 10.235997,17.7981 23.159507,25.26478 38.36511,22.16578 110.1641,32.04304 178.66465,24.57857 z m -5.5907,-24.39117 c 27.65229,-2.60685 57.50852,-9.16147 76.59254,-16.81506 18.93352,-7.59324 35.33322,-19.8595 38.73654,-28.97323 2.31134,-6.18954 1.83963,-7.1702 -1.80046,-3.74308 -16.73931,15.7599 -51.72222,28.46897 -97.39555,35.38321 -17.40088,2.6342 -74.41071,3.75972 -93.98906,1.85556 -50.76407,-4.93725 -92.24471,-17.88198 -112.50724,-35.10976 -4.083539,-3.47194 -5.870227,-4.4068 -5.870227,-3.07148 0,6.63162 10.235997,17.79808 23.159507,25.26476 37.07872,21.42257 106.29597,31.5044 173.07395,25.20908 z m -19.8271,-23.64623 c 38.99306,-2.03884 70.65083,-7.99165 96.41964,-18.13039 6.52475,-2.56719 22.49426,-10.92511 21.97809,-11.50265 -0.21908,-0.24513 -5.63115,0.96481 -12.02682,2.68878 -15.85264,4.27313 -40.35278,8.78934 -62.50382,11.52158 -14.77861,1.82288 -27.45919,2.27565 -63.73394,2.27565 -36.27475,0 -48.95533,-0.45277 -63.73395,-2.27565 -22.15103,-2.73224 -46.65117,-7.24845 -62.50381,-11.52158 -6.39565,-1.72397 -11.81209,-2.92905 -12.03651,-2.67794 -0.22442,0.2511 4.00207,2.73921 9.39221,5.52911 25.44679,13.17114 63.39835,21.80956 105.40113,23.99104 10.14712,0.52702 18.95246,1.03218 19.56744,1.12259 0.61498,0.0904 11.31614,-0.36883 23.78034,-1.02054 z m 27.09501,-26.38543 c 78.1555,-5.94548 142.72813,-29.56745 160.99752,-58.89616 3.48022,-5.58697 3.92803,-7.20468 3.92803,-14.19022 0,-6.98553 -0.44781,-8.60323 -3.92803,-14.19021 C 446.49925,89.677053 397.66021,68.598993 334.05173,59.343954 285.24837,52.243059 225.0153,52.041369 177.4712,58.819648 111.71551,68.194313 61.596613,89.344487 46.31774,114.16637 c -3.720396,6.04413 -4.16194,7.5949 -4.16194,14.61746 0,6.95313 0.451451,8.58075 3.928032,14.16187 26.322398,42.2566 137.128758,67.85694 254.921228,58.89616 z m -80.01603,-38.10368 c -31.97085,-5.22347 -53.59554,-17.41547 -55.96604,-31.55372 -1.09537,-6.53296 1.2325,-13.19297 6.4574,-18.4746 9.43793,-9.54039 30.66409,-17.556212 54.80473,-20.696393 15.39021,-2.001937 55.45108,-0.890395 68.01109,1.887054 22.0979,4.886613 37.37754,12.183279 44.20709,21.110719 15.57314,20.35691 -6.40045,40.51975 -52.03405,47.74618 -14.57673,2.30833 -51.29997,2.29753 -65.48022,-0.0193 z m 47.03091,-10.57045 c 39.97753,-3.05913 68.87794,-15.61669 63.21041,-27.46566 -4.7765,-9.98612 -30.99485,-18.92762 -62.3718,-21.27128 -47.21076,-3.52634 -98.44187,11.42595 -92.14351,26.89295 4.0003,9.8236 31.19957,19.51693 61.11514,21.78037 6.76475,0.51184 12.8027,1.00504 13.41768,1.09604 0.61497,0.091 8.16241,-0.3736 16.77208,-1.03242 z"
       id="path1" />
  </g>
</svg>
